<svg width="138" height="131" viewBox="0 0 138 131" fill="none" xmlns="http://www.w3.org/2000/svg">
<path d="M129.284 72.8981V14.7961V0.839416C129.284 0.375819 128.908 0 128.445 0H42.162C41.1031 0 40.5736 0 40.1258 0.0100292C18.7362 0.489102 1.51059 17.7147 1.03151 39.1043C1.02148 39.5521 1.02148 40.0816 1.02148 41.1405V73.5442C1.02148 78.3694 4.93306 82.281 9.75823 82.281C12.7812 82.281 15.5893 80.7183 17.1827 78.1494L17.3062 77.9504L54.7105 19.0534C56.8224 15.728 60.4882 13.7135 64.4276 13.7135C68.334 13.7135 71.9738 15.6946 74.0945 18.9752L110.484 75.2642C112.366 78.1765 115.597 79.9353 119.065 79.9353H122.247C126.134 79.9353 129.284 76.7846 129.284 72.8981Z" fill="url(#paint0_linear_84_2)"/>
<path d="M17.5831 88.5928L1.61102 114.494C0.557766 116.202 0 118.169 0 120.175C0 126.154 4.84638 131 10.8247 131H82.8013C106.588 131 120.913 104.641 107.975 84.6816L96.7951 67.4351C95.794 65.8908 94.0789 64.9586 92.2385 64.9586C89.9745 64.9586 87.9481 66.3633 87.1536 68.4833L84.8204 74.7095C84.0899 76.6588 82.2266 77.9504 80.1448 77.9504C78.3418 77.9504 76.6789 76.9783 75.7942 75.4073L67.7107 61.053C66.4329 58.784 64.0311 57.3801 61.4271 57.3801C58.3286 57.3801 55.5765 59.3594 54.5905 62.2967L41.801 100.397C41.2004 102.187 39.5238 103.393 37.6362 103.393C36.0601 103.393 34.6048 102.548 33.8225 101.18L26.7114 88.7441C25.7659 87.0906 24.0071 86.0702 22.1023 86.0702C20.2603 86.0702 18.5499 87.0249 17.5831 88.5928Z" fill="url(#paint1_linear_84_2)"/>
<defs>
<linearGradient id="paint0_linear_84_2" x1="-59.8569" y1="-64.6942" x2="54.5009" y2="177.871" gradientUnits="userSpaceOnUse">
<stop offset="0.402892" stop-color="#B1622F"/>
<stop offset="0.666136" stop-color="#DAA079"/>
</linearGradient>
<linearGradient id="paint1_linear_84_2" x1="-65.5" y1="-0.504173" x2="24.646" y2="229.424" gradientUnits="userSpaceOnUse">
<stop offset="0.402892" stop-color="#B1622F"/>
<stop offset="0.666136" stop-color="#DAA079"/>
</linearGradient>
</defs>
</svg>
