<?xml version="1.0" encoding="UTF-8"?>
<svg id="Layer_2" data-name="Layer 2" xmlns="http://www.w3.org/2000/svg" viewBox="0 0 1434.05 119.65">
  <defs>
    <style>
      .cls-1 {
        fill:rgba(216, 216, 216, 0.38);
      }
    </style>
  </defs>
  <g id="Layer_1-2" data-name="Layer 1">
    <path class="cls-1" d="m1433.1,110.49s-.04-.09-.07-.13c-.13-.17-.22-.3-.29-.4-.16-.22-.28-.4-.5-.57-.49-.38-.97-.75-1.46-1.12-.82-.62-1.64-1.25-2.45-1.9-.49-.4-.93-.92-1.26-1.33-.14-.18-.26-.38-.38-.58-.22-.38-.47-.8-.85-1.16-3.98-3.7-7.82-6.53-11.74-8.64-.89-.48-1.76-.98-2.64-1.49-2.59-1.49-5.26-3.02-8.29-3.93-3.2-.95-6.54-2.13-10.52-3.71-1.38-.55-2.76-1.39-3.9-2.38-1.09-.95-2.07-2-3.1-3.11-.61-.65-1.21-1.3-1.84-1.93-.82-.82-1.68-1.61-2.52-2.38-1.71-1.57-3.33-3.05-4.65-4.79-2.57-3.38-5.55-7.44-8.19-11.96-2.37-4.07-5.22-7.92-7.98-11.64-1.2-1.62-2.4-3.24-3.56-4.87-3.62-5.11-8.75-8.67-15.25-10.59l-.47-.14c-.6-.17-1.17-.33-1.62-.59-6.36-3.82-13.17-7.92-19.88-12.05-1.5-.92-2.62-2.38-3.52-4.59-.21-.51-.59-1.25-1.19-1.84-.7-.69-1.45-1.33-2.17-1.94-.27-.23-.54-.46-.8-.69-1.23-1.07-2.53-2.06-3.79-3.02-1.36-1.03-2.72-2.07-4-3.21-.6-.54-1.22-1.09-1.74-1.71-.53-.64-1.09-1.22-1.78-1.69-.3-.21-.64-.4-1.01-.41-.87-.02-1.33,1.34-1.57,1.99-.37.98-.56,2-.74,3.03-.08.45-.16.9-.25,1.33-.07-.09-.14-.17-.22-.25-.84-.97-1.74-1.45-2.65-1.41-.9.03-1.73.54-2.46,1.5-.4.52-.71,1.08-1.02,1.62-.15.27-.3.53-.46.79-.48.78-.95,1.56-1.42,2.34-1.08,1.8-2.19,3.67-3.42,5.38-1.01,1.41-2.19,2.76-3.33,4.07-.66.76-1.32,1.52-1.96,2.29-.77.94-1.38,1.45-2.37,1.46-.76.01-1.47.36-2.03.63l-.11.05c-3.31,1.62-5.07,4.53-6.48,7.42-.33.68-.6,1.38-.86,2.06-.42,1.1-.82,2.13-1.42,2.99-4.19,5.94-10.2,13.21-19.54,16.78-1.29.49-2.05,1.38-2.32,2.69l-.16.8c-.36,1.77-.73,3.6-1.18,5.37-.7,2.74-1.43,5.47-2.15,8.21-.67,2.54-1.34,5.07-2,7.62-.26,1-.78,1.72-1.75,2.43-1.58,1.15-3.14,2.32-4.71,3.48-2.06,1.54-4.19,3.13-6.32,4.64-1.01.72-2.23,1.3-3.52,1.68-.84.25-1.74.36-2.69.48-.65.08-1.32.17-1.99.3-.53.1-1.05.2-1.58.3-3.05.57-6.21,1.16-9.07,2.98-1.48.94-3.1,1.76-4.67,2.55l-1.23.62c-2.93,1.51-5.52,2.94-7.53,5.29-.39.45-.71.94-1.01,1.41-.35.53-.67,1.03-1.06,1.42-1.63,1.63-3.41,3.19-5.13,4.7l-.21.19c-.48.42-.83.58-1,.6-.54.05-1.03-.04-1.28-.15-.02-.21.01-.58.1-.74,1.16-2.31,2.41-4.76,3.85-7.08.97-1.55,2.02-3.1,3.03-4.6,1.12-1.65,2.27-3.36,3.33-5.09.7-1.15,1.43-2.23,2.57-2.81,1.65-.84,3.35-1.7,5.11-2.38,4.13-1.58,8.55-2.53,12.84-3.45,6.07-1.31,12.01-4.17,18.14-8.75,1.26-.94,2.05-2.15,2.57-3.92,1.06-3.66,2.19-7.36,3.28-10.95.64-2.11,1.28-4.21,1.92-6.32.94-3.14,2.83-5.35,5.79-6.78,1.31-.63,2.47-1.26,3.53-1.92.46-.28,1.32-1.07,1.3-2-.06-3.02-2-5.43-4.72-5.87-2.56-.41-4.52-1.7-6.35-4.18-.86-1.18-1.94-2.65-3.08-3.98-.89-1.04-1.95-1.57-3.02-1.48-1.01.08-1.91.71-2.55,1.77l-2.16,3.59c-2.13,3.54-4.33,7.2-6.54,10.76-1.11,1.79-2.07,3.54-3.48,5.12-1.36,1.52-2.89,2.88-4.43,4.22-1.8,1.56-3.64,3.09-5.3,4.81-.85.88-1.62,1.82-2.36,2.79-.68.89-1.53,1.43-1.87,2.56-.34,1.11-.6,2.25-.85,3.35-.21.9-.42,1.82-.67,2.71-.07.25-.36.61-.58.73-1.02.54-2.1,1.03-3.14,1.51-.55.25-1.1.5-1.65.76-1.44.68-2.89,1.36-4.33,2.03-3.59,1.68-7.31,3.41-10.91,5.24-2.94,1.5-6.43,3.78-7.37,8.25-.78,3.74-2.59,7.35-5.7,11.35-.33.43-.75.82-1.19,1.24-.98.94-2.09,1.99-2.44,3.66-.03.02-.06.04-.1.07l-.85.65c-.84.64-1.7,1.3-2.57,1.9-4.72,3.29-10.1,5.77-15.99,7.37-2.05.56-4.47,1.13-6.79,1.13-34.03.04-68.63.04-102.1.03h-33.67c-58.71-.01-117.42-.01-176.13-.01H2.08c-.28-.01-.56.02-.85.06l-.31.04c-.49.05-.87.44-.9.93l-.02.38c-.03.5.31.94.8,1.04.09.02.18.04.27.06.27.07.57.15.92.15,1.75.02,3.5.02,5.25.01h999.71c44.38-.01,88.77-.01,133.17,0,3.14,0,6.01-.42,8.79-1.29,8.68-2.7,15.17-6.13,20.44-10.8.41-.36.67-.8.91-1.19l.1-.16c.14-.23.26-.47.38-.71.15-.3.28-.58.44-.75,4.38-4.56,7.13-9.53,8.43-15.2.25-1.11.95-2.29,1.74-2.93,2.11-1.71,4.24-3.11,6.33-4.14,3.41-1.69,6.92-3.33,10.32-4.91,2.43-1.13,4.85-2.26,7.27-3.42.85-.41,1.63-1.31,1.95-2.24.49-1.42.89-2.97,1.31-5.03.36-1.76,1.53-2.64,2.78-3.83,1.41-1.34,2.83-2.69,4.24-4.03,3.34-3.18,6.71-6.39,9.33-10.21,2.85-4.15,5.24-8.72,7.82-13.04l1.65-2.77c.58-.98.9-1.01.91-1.02.02,0,.3-.02.97.75.12.14.23.29.34.44.08.11.17.23.25.34.31.4.61.81.92,1.22.71.95,1.44,1.93,2.25,2.84,1.36,1.55,3.56,3.65,6.91,4.02,1.41.15,2.12.94,2.54,2.8.02.09.03.15.03.17-.03.03-.1.07-.23.14-1.55.78-2.84,1.46-4.09,2.23-2.05,1.26-4.08,2.78-5.01,5.32-.28.77-.57,1.53-.86,2.3-.73,1.92-1.48,3.91-2.11,5.92-.68,2.2-1.32,4.44-1.93,6.62-.55,1.96-1.1,3.92-1.7,5.86-.16.51-.58,1.09-1.03,1.41-2.66,1.86-4.74,3.19-6.72,4.33-4.28,2.46-8.27,3.95-12.2,4.55-4.58.71-9.21,2.12-14.58,4.45-2.38,1.03-4.81,2.27-6.05,5.01-.42.92-1.04,1.8-1.53,2.47-3.2,4.31-5.84,9.03-8.39,13.59l-.31.55c-.94,1.68-.92,3.09.06,4.18,1.1,1.22,2.76,1.47,4.43.68.57-.27,1.21-.61,1.71-1.14.82-.87,1.72-1.63,2.68-2.44,1.81-1.53,3.68-3.11,4.93-5.43.6-1.11,2.13-2.01,3.51-2.81,3.63-2.12,7.3-4.04,10.41-5.64,1.08-.55,2.33-1.01,3.82-1.4,1.46-.38,3-.65,4.48-.91l.83-.15c.46-.08.91-.15,1.37-.22-3.51,3.26-7,6.53-10.49,9.81-.32.3-.56.66-.77.99-.14.22-.26.45-.37.69-.15.29-.3.6-.45.73-2.27,1.95-4.07,4.37-5.35,7.2-.91,2.01-.53,3.28-.05,3.99.48.72,1.56,1.56,3.8,1.49.47-.02,1.01-.04,1.55-.21,1.03-.31,2.07-.6,3.1-.89,2.54-.72,5.17-1.46,7.69-2.42,7.06-2.69,14.32-3.75,19.86-4.36,4.83-.54,9.86-1.16,14.58-2.42,2.48-.67,4.91-1.58,7.15-2.85,1.12-.63,2.17-1.36,3.17-2.17.9-.73,1.84-1.34,2.56-2.27,3.22-4.17,6.38-8.48,9.44-12.66l1.82-2.48c.21.24.4.47.55.72l.67,1.1c1.76,2.93,3.58,5.96,6.31,8.32,2.26,1.94,4.59,3.86,6.85,5.72,1.2.99,2.4,1.97,3.63,3,.07.06.19.16.28.24-.04,1.2.83,1.78,1.31,2.11l.18.12c.59.41,1.17.83,1.75,1.25,1.59,1.14,3.24,2.32,4.95,3.38,1.31.81,2.78,1.17,3.79,1.33,2.75.43,5.5.82,8.26,1.21,3.7.53,7.52,1.07,11.26,1.7,7.56,1.27,15.28,1.48,22.74,1.68l1.13.03c.51.01,1.22.03,1.88-.17.94-.29,1.96-.67,2.12-1.58.15-.87-.25-2.02-.92-2.63-1.2-1.09-2.41-2-3.6-2.69-2.58-1.51-4.25-3.21-5.28-5.33l-.19-.4c-.58-1.21-1.18-2.45-1.95-3.6-.53-.8-1.06-1.6-1.59-2.4-4.06-6.15-8.26-12.51-14.26-17.37-1.35-1.09-2.58-1.99-3.77-2.74-.73-.46-1.48-.87-2.21-1.27-.99-.54-1.93-1.06-2.8-1.68-1.87-1.33-3.73-2.84-4.19-5.3-.45-2.38-.92-4.75-1.41-7.12-.15-.71-.33-1.4-.52-2.1-.09-.32-.17-.64-.25-.96-.21-.82-.41-1.64-.61-2.46-.49-2.02-1-4.1-1.64-6.13-.41-1.3-1.36-2.43-2.24-3.35-1.31-1.4-3.33-1.58-4.89-.46-.99.71-1.83,1.61-2.59,2.48-.56.63-1.04,1.31-1.51,1.96-.19.27-.38.54-.58.8-.37.49-.74.98-1.11,1.46-.91,1.2-1.85,2.43-2.71,3.71-.34.51-.57,1.05-.78,1.57-.22.53-.43,1.04-.72,1.38-1.84,2.14-3.86,4.21-5.81,6.21l-.47.48c-1.52,1.56-3.09,3.17-3.95,5.44-.53,1.4-1.28,2.74-2.07,4.1-.7,1.21-1.47,2.42-2.22,3.59l-.37-.74c-.93-1.85-1.86-3.71-2.78-5.57-.44-.9-.86-1.82-1.28-2.74-.87-1.92-1.77-3.9-2.92-5.73-1.17-1.85-2.75-2.87-4.46-2.89h-.04c-1.74,0-3.39,1.04-4.64,2.95-.95,1.44-1.73,2.99-2.48,4.5l-.55,1.09c-1.88,3.69-4,7.53-7.35,10.33-.45.37-.88.77-1.32,1.16-1.68,1.51-3.27,2.94-5.44,3.33-2.19.39-4.44.73-6.62,1.06l-2.14.32c-.62.09-1.24.18-1.87.26-.67.09-1.35.18-2.02.28-.62.1-1.24.2-1.88.3.17-.12.33-.24.5-.37,2.47-1.82,5.03-3.7,7.59-5.47,1.83-1.25,2.92-2.86,3.44-5.06,1.01-4.25,2.08-8.56,3.12-12.73.66-2.65,1.32-5.3,1.97-7.96.2-.8.55-1.23,1.21-1.49,5.23-2,9.98-5.37,14.52-10.3,3.03-3.29,6.46-7.01,8.03-11.94.41-1.29,1.27-2.59,1.97-3.63,1.63-2.44,3.5-3.69,5.91-3.91.73-.07,1.58-.53,2.1-1.14,2.29-2.68,4.73-5.57,7.1-8.56.49-.61.81-1.29,1.12-1.94.18-.37.36-.75.57-1.1.53-.89,1.09-1.76,1.65-2.63.35-.54.69-1.08,1.03-1.62.16-.25.31-.52.45-.78.21-.38.41-.74.64-1.05.36-.49.54-.54.53-.54.01,0,.19.03.61.46,1.4,1.42,1.82,3.03,1.5,5.76-.35,3.07-.45,6.2-.55,9.22-.03.98-.06,1.95-.1,2.93-.11,2.81.29,3.19,2.84,4.28,1.04.44,2.07.9,3.1,1.36,1.77.79,3.6,1.61,5.46,2.32,2.07.79,4.12,1.77,6.11,2.71,3.81,1.81,7.76,3.67,12.13,4.45.4.07.68.2.76,1.19.03.35.05.7.07,1.05.04.73.09,1.49.2,2.24.24,1.58.49,3.15.75,4.73.2,1.25.41,2.5.6,3.75.25,1.63.56,3.66,2.13,5.19.72.7,1.46,1.04,2.28,1,.8-.04,1.54-.45,2.2-1.23.17-.2.33-.42.49-.64.27-.38.53-.73.79-.88.37-.22.96-.32,1.1-.28,1.45.82,2.41,2.06,2.86,3.71l.22.79c.33,1.24.68,2.52,1.12,3.76.92,2.59,1.86,5.17,2.8,7.75,1.39,3.82,2.83,7.78,4.18,11.68,1.26,3.64,3.72,6.59,7.51,9.04,1.84,1.19,3.23.53,4.08-.23.55-.5,1.18-.6,1.86-.3.24.1.47.2.71.3.75.31,1.46.61,2.06,1.01,4.48,3.04,9.01,6.18,13.38,9.21.64.45,1.46.76,2.02,1.32.52.52.88,1.23,1.39,1.77,1.19,1.28,2.61,1.95,4.06,2.85,1.11.69,2.22,1.39,3.35,2.06,5.68,3.36,10.9,6.16,17.39,6.5,4.35.22,8.77.6,13.04.97,2.12.18,4.24.36,6.35.53.43.04.76-.15.96-.26l.09-.05c.4-.17.64-.58.6-1.02l-.04-.43c-.05-.51-.48-.9-1-.9-.37,0-.74.01-1.11.02-.78.02-1.52.04-2.24-.03l-2.37-.21c-4.39-.39-8.92-.78-13.36-1.31-.46-.05-.93-.1-1.39-.15-2.29-.24-4.66-.49-6.57-1.39-2.81-1.33-5.54-2.82-8.25-4.36-1.8-1.03-3.78-1.91-5.41-3.18-1.26-.98-2.45-2.06-3.6-3.16-.49-.47-.93-.97-1.54-1.28-.66-.34-1.28-.77-1.88-1.19-3.17-2.21-6.35-4.42-9.53-6.61-.37-.26-.74-.53-1.12-.8-1.75-1.28-3.57-2.6-5.97-2.86-1.11-.12-2.49.25-3.52.96-.46.31-.49.3-.76.13-3.18-1.88-5.25-4.22-6.32-7.15-2.44-6.65-5.01-13.77-7.85-21.76-.18-.51-.34-1.04-.49-1.56-.51-1.73-1.04-3.52-2.5-5.02-1.39-1.43-2.62-2.06-3.84-1.97-1.21.09-2.29.85-3.4,2.41-.47.66-.71.79-.71.82-.05-.02-.29-.17-.76-.86-.09-.14-.38-.56-.43-.88l-.39-2.47c-.56-3.56-1.15-7.23-1.6-10.86-.29-2.36-.95-3.68-3.71-4.34l-.66-.16c-1.42-.34-2.88-.68-4.18-1.24-4.41-1.88-8.87-3.84-13.19-5.73-2.67-1.17-5.35-2.34-8.02-3.51-.72-.31-.83-.58-.77-1.19.24-2.49.38-4.57.45-6.55.02-.63.03-1.27.04-1.9,1.1,2.8,3.02,6.15,6.96,8.03l3.66,1.76c6.06,2.91,12.33,5.93,18.54,8.78,2.02.93,4.12,1.74,6.15,2.53,1.57.61,3.2,1.24,4.77,1.92,2.51,1.08,3.84,2.85,4.07,5.39.12,1.42.6,2.81,1.1,4.11.53,1.39,1.25,2.7,1.88,3.86.37.67.73,1.35,1.08,2.03,1.05,2,2.14,4.06,3.47,5.95.94,1.33,2.18,2.41,3.38,3.45.44.38.89.77,1.31,1.16,1.5,1.39,3.21,2.15,5.08,2.24,1.09.06,1.98.54,2.73,1.47,2.85,3.56,5.42,6.78,8,10.09.69.88,1.36,1.82,2.01,2.73,1.29,1.8,2.61,3.67,4.22,5.27,4.34,4.33,8.93,8.54,13.37,12.61l2.93,2.69c.08.08.17.14.26.22l1.78,2.15c.1.12.17.22.23.29.14.18.27.35.48.5,4.37,2.95,8.23,4.55,12.16,5.03,5.38.65,10.88.95,16.19,1.24l.68.04c.6.03,1.2.05,1.81.05,1.2,0,2.4-.05,3.57-.1.79-.03,1.59-.07,2.38-.09l.98-.02v-2.56l-.95.1Zm-152.36-27.15c1.27-1.79,2.59-3.7,4.15-6.02.41-.6.65-1.16.74-1.69.29-1.75,1.26-3.28,3.04-4.83l.47-.41c2.79-2.41,5.67-4.89,7.28-8.33,1.01-2.15,2.42-3.97,3.92-5.88.94-1.21,1.92-2.46,2.77-3.8.99-1.55,1.85-2.12,2.86-1.93,1.07.21,1.85,1.12,2.3,2.72.52,1.85.99,3.75,1.45,5.6.19.77.38,1.53.57,2.29l.27,1.04c.22.86.45,1.71.63,2.58.16.78.3,1.56.44,2.35.27,1.5.54,3.06.99,4.57.64,2.15,1.45,3.65,2.49,4.59,1.53,1.39,3.27,2.53,4.95,3.64.57.37,1.14.75,1.7,1.13.57.39,1.16.75,1.75,1.11.9.56,1.76,1.08,2.54,1.7,5.35,4.23,9.21,9.7,12.28,14.5.63.99,1.33,1.96,2,2.89.68.94,1.38,1.91,2,2.89.36.56.62,1.2.91,1.88.22.52.44,1.05.72,1.57,1.27,2.41,3.22,4.34,5.8,5.73,1.06.57,2.06,1.33,3.07,2.13.03.02.05.04.08.07-.2.02-.4.03-.57.03-10.41-.03-21.34-1.02-32.48-2.96-3.58-.62-7.18-1.09-11.17-1.61-1.83-.23-3.31-1.24-4.87-2.31-.35-.24-.71-.48-1.06-.71-.89-.58-1.69-1.18-2.38-1.8-.17-.15-.34-.42-.51-.71-.11-.17-.21-.35-.33-.51-.05-.08-.1-.16-.16-.25-.16-.26-.35-.58-.67-.85-1.29-1.1-2.6-2.18-3.9-3.26-2.57-2.13-5.22-4.33-7.72-6.6-2.7-2.46-4.58-5.71-6.39-8.87-.2-.35-.4-.69-.6-1.04.23-.17.45-.38.64-.64Zm-41.93,7.82c7.34-.41,13.21-3.47,17.97-9.37,2.83-3.51,4.78-7.53,6.67-11.41.55-1.12,1.33-2.22,2.2-3.09.47-.47.96-.7,1.47-.7h.01c.54,0,1.1.29,1.61.81.75.77,1.3,1.52,1.64,2.24,2.11,4.47,4.14,8.94,6.36,13.84l-.04.49c-1,1.32-2.01,2.63-3.02,3.95-2.46,3.19-5,6.49-7.31,9.88-1.77,2.62-4.02,4.36-7.07,5.49l-10.33,3.86c-3.98.63-8.06,1.14-12,1.62-1.69.21-3.38.41-5.07.63-.32.04-.64.07-.96.09-.76.06-1.54.12-2.32.37-2.34.74-4.67,1.51-7,2.28-3.07,1.02-6.25,2.07-9.39,3.03-1.91.58-3.99.87-5.96,1.09-.13.02-.24.02-.31.02-.1,0-.16-.01-.17,0-.02-.05-.07-.23-.05-.7.03-.5.12-.93.28-1.24,1.25-2.54,2.72-4.49,4.49-5.98.67-.57,1.21-1.24,1.7-1.89.24-.32.43-.64.62-.96.23-.39.44-.75.69-.99,3.47-3.28,7.17-6.76,11.01-10.17.94-.83,2-1.41,2.89-1.58,3.74-.68,7.59-1.4,11.39-1.61Zm154.06,8.31c-1.2-1.05-2.4-2.09-3.6-3.13-7.21-6.26-12.47-12.03-16.53-18.16-1.92-2.89-4.27-5.53-6.55-8.08-.52-.59-1.05-1.17-1.56-1.76-.73-.83-2.08-1.84-3.49-1.99-2.4-.24-4.07-1.55-6.01-3.22-1.61-1.39-2.69-3.17-3.83-5.06-.32-.53-.65-1.06-.98-1.58-1.45-2.26-2.62-4.8-3.75-7.26l-.55-1.2c-.19-.4-.25-.92-.33-1.47-.06-.45-.12-.93-.26-1.4l-.11-.39c-.29-1.04-.59-2.13-1.18-3.09-1.36-2.22-3.57-3.3-5.34-4-.83-.33-1.67-.65-2.5-.97-2.41-.93-4.9-1.88-7.26-2.97-3.03-1.39-6.08-2.86-9.04-4.28-3.81-1.83-7.74-3.72-11.67-5.47-6.13-2.73-7.58-8.23-9.06-14.08l.08-.4c.4-1.94.8-3.87,1.21-5.81.03.03.05.05.08.08.81.87,1.64,1.78,2.6,2.58,1.99,1.68,4.06,3.33,6.05,4.92,1.17.94,2.34,1.87,3.5,2.82.44.36.55.6.57.66,1.13,3.04,3.03,5.43,5.67,7.08l1.46.92c3.48,2.19,7.08,4.46,10.71,6.56l1.43.83c3.24,1.9,6.59,3.86,10.47,4.97,3.91,1.12,7.52,3.57,10.16,6.9,2.74,3.45,5.28,7.17,7.73,10.77l.42.62c2.08,3.05,4.12,6.23,6.09,9.29l1.26,1.96c4.92,7.66,9.5,12.83,14.84,16.78.53.39,1,.9,1.49,1.44.33.35.65.71,1,1.04.28.27.55.55.83.83.79.82,1.6,1.67,2.66,2.21,2.45,1.26,5.07,2.24,7.59,3.18l.1.04c1.18.44,2.4.82,3.57,1.19,2.09.66,4.06,1.28,5.89,2.21,5.64,2.89,12.1,6.4,17.27,11.54.14.14.32.33.44.52.11.17.2.35.3.54.24.47.51,1,.99,1.39,1.25,1.04,2.58,2.01,3.85,2.95l.19.14c-.19,0-.39.01-.58.01-1.82-.08-3.65-.18-5.47-.29-2.23-.13-4.54-.27-6.82-.34-3.44-.11-7.24-.3-10.52-1.42-2.28-.78-4.3-1.59-6.33-2.96-2.65-1.75-4.79-4.1-7.18-6.19Z"/>
  </g>
</svg>