<?xml version="1.0" encoding="UTF-8"?>
<svg id="Layer_1" data-name="Layer 1" xmlns="http://www.w3.org/2000/svg" viewBox="0 0 1366 1170">
  <defs>
    <style>
      .cls-1 {
        fill: none;
        stroke: #555555;
        stroke-miterlimit: 10;
      }
    </style>
  </defs>
  <path class="cls-1" d="M1359.28,310.5l-.5-.17c-10.5,0-21.5-2-21.5-2-6,1-32-18-32-18,0,0-8-7-10-4s-8-5-8-5c0,0-5-12-8-22s-7-7-7-7c-3,6-5,0-5,0l-2-12c.23-1.14.24-2.49-.68-3.34-1.05-.97-2.86-.63-4.16-1.02-1.43-.43-2.75-1.17-4.09-1.82-2.08-1.01-4.27-1.87-6.39-2.81-4.56-2.01-9.12-4.01-13.68-6.02,0,0,1-18,1-18l1.13-5c.13-3,1.87,0,1.87,0l2,2c2.53,2.11,5.15,4.09,7.7,6.17,1.12.91,2.35,1.8,3.28,2.92.84,1.02,1.42,2.22,2.26,3.25,1.38,1.68,3.49,2.48,5.25,3.67,5.34,3.58,10.9,6.86,16.51,10,5,0,13,7,13,7l22,31,10,9c-1,3,17,8,17,8,1,0,14,8,14,8,0,0,5,5,10,8.4s0,2.6,0,2.6l-18-1c-9-1-15-6-15-6l-10-9-8-8-7-10c-6-8-8-8-8-8-3,2-11-8-11-8l-3-6-2-4c1-6-5-8-5-8l-10-4-7.48-3.58c-4.27-2.04-8.5-4.23-12.82-6.13-5.48-2.41-6.77-7.13-8.61-12.29-3.91-11-7.09,0-7.09,0l-10.5,12.65c-7.5-.35-10.5,11.35-10.5,11.35-5,8-13,14-13,14-7,4-8,4-8,4-2,7-6,23-6,23l-16,12-15,14c-10,13,5,7,5,7l15-5,17-2c18-3,19-8,19-8l7-10,5.5-6.42,4.5-6.58c-1-3,7-9,7-9l9-12c5-8,8,0,8,0l1.66,6.21,1.27,4.78c.35,1.31,1.03,2.55.96,3.93-.14,2.75.65,4.34,2.7,6.23,1.28,1.18,2.67,2.31,4.23,3.11s3.18,1.42,4.57,2.53c1.37,1.1,2.56,2.38,3.83,3.57,1.28,1.19,2.55,2.41,3.78,3.64,0,0,13,19.1,13,19.1,16,9.1,0,5.9,0,5.9-2,2-37-4-37-4-2,2-22-16-22-16-7-8-13-24-13-24-5-9-9,0-9,0-6,14-12,16-12,16,0,3-15,4-15,4-3.07.51-21,4-21,4l-13,7-11,10c-5,1-3-3-3-3l10-15c0-4,16-8,16-8,12-1,22.4-10.11,22.4-10.11,3.4-14.11,6.6-19.89,6.6-19.89,0-3,9-7,9-7,0,0,0-5-4-5s-8.26-7-8.26-7c-3.26-5-4.74,0-4.74,0l-11,18c-17,15-13,11-13,11l-2,8-19,9c-6,3-7,6-7,6-4,23-33.27,28-33.27,28H0"/>
</svg>