<svg width="760" height="173" viewBox="0 0 760 173" fill="none" xmlns="http://www.w3.org/2000/svg">
<path d="M129.284 93.8981V35.7961V21.8394C129.284 21.3758 128.908 21 128.445 21H42.162C41.1031 21 40.5736 21 40.1258 21.01C18.7362 21.4891 1.51059 38.7147 1.03151 60.1043C1.02148 60.5521 1.02148 61.0816 1.02148 62.1405V94.5442C1.02148 99.3694 4.93306 103.281 9.75823 103.281C12.7812 103.281 15.5893 101.718 17.1827 99.1494L17.3062 98.9504L54.7105 40.0534C56.8224 36.728 60.4882 34.7135 64.4276 34.7135C68.334 34.7135 71.9738 36.6946 74.0945 39.9752L110.484 96.2642C112.366 99.1765 115.597 100.935 119.065 100.935H122.247C126.134 100.935 129.284 97.7846 129.284 93.8981Z" fill="url(#paint0_linear_124_2)"/>
<path d="M17.5831 109.593L1.61102 135.494C0.557766 137.202 0 139.169 0 141.175C0 147.154 4.84638 152 10.8247 152H82.8013C106.588 152 120.913 125.641 107.975 105.682L96.7951 88.4351C95.794 86.8908 94.0789 85.9586 92.2385 85.9586C89.9745 85.9586 87.9481 87.3633 87.1536 89.4833L84.8204 95.7095C84.0899 97.6588 82.2266 98.9504 80.1448 98.9504C78.3418 98.9504 76.6789 97.9783 75.7942 96.4073L67.7107 82.053C66.4329 79.784 64.0311 78.3801 61.4271 78.3801C58.3286 78.3801 55.5765 80.3594 54.5905 83.2967L41.801 121.397C41.2004 123.187 39.5238 124.393 37.6362 124.393C36.0601 124.393 34.6048 123.548 33.8225 122.18L26.7114 109.744C25.7659 108.091 24.0071 107.07 22.1023 107.07C20.2603 107.07 18.5499 108.025 17.5831 109.593Z" fill="url(#paint1_linear_124_2)"/>
<path d="M168.387 51.9766C165.457 51.9766 163.992 50.707 163.992 48.168V40.7852C163.992 38.2461 165.457 36.9766 168.387 36.9766H228.621C231.551 36.9766 233.016 38.2461 233.016 40.7852V48.168C233.016 50.707 231.551 51.9766 228.621 51.9766H207.059V117.777C207.059 119.926 206.082 121 204.129 121H192.879C190.926 121 189.949 119.926 189.949 117.777V51.9766H168.387ZM248.484 121C245.75 121 244.383 119.535 244.383 116.605V41.3711C244.383 38.4414 245.75 36.9766 248.484 36.9766H275.613C287.684 36.9766 296.492 38.8516 302.039 42.6016C307.586 46.3125 310.359 52.3672 310.359 60.7656C310.359 67.0156 308.113 71.9961 303.621 75.707C299.129 79.418 293.426 81.8789 286.512 83.0898V83.207C290.262 84.6133 293.094 86.5664 295.008 89.0664C296.922 91.5664 298.484 93.7539 299.695 95.6289L312.586 115.961C314.734 119.32 313.992 121 310.359 121H300.164C298.016 121 296.258 119.848 294.891 117.543L283.055 97.7969C281.766 95.6875 279.402 93.3828 275.965 90.8828C272.566 88.3438 269.188 87.0742 265.828 87.0742H261.492V116.605C261.492 119.535 260.125 121 257.391 121H248.484ZM261.492 72.543H271.98C279.793 72.543 285.34 71.6641 288.621 69.9062C291.941 68.1094 293.602 65.2773 293.602 61.4102C293.602 57.1914 292 54.457 288.797 53.207C285.633 51.918 280.965 51.2734 274.793 51.2734H261.492V72.543ZM332.156 121C329.422 121 328.055 119.535 328.055 116.605V41.3711C328.055 38.4414 329.422 36.9766 332.156 36.9766H341.062C343.797 36.9766 345.164 38.4414 345.164 41.3711V116.605C345.164 119.535 343.797 121 341.062 121H332.156ZM358.523 40.8438C357.547 38.2656 358.465 36.9766 361.277 36.9766H370.594C373.211 36.9766 375.008 38.3242 375.984 41.0195L393.914 89.9453C394.812 92.4453 395.34 94.125 395.496 94.9844C395.652 95.8047 395.828 97.1914 396.023 99.1445H396.258C396.453 97.1914 396.629 95.8047 396.785 94.9844C396.941 94.125 397.469 92.4453 398.367 89.9453L416.297 41.0195C417.273 38.3242 419.07 36.9766 421.688 36.9766H431.004C433.816 36.9766 434.734 38.2656 433.758 40.8438L405.75 116.254C404.578 119.418 402.742 121 400.242 121H392.039C389.539 121 387.703 119.418 386.531 116.254L358.523 40.8438ZM448.289 121C445.555 121 444.188 119.535 444.188 116.605V41.3711C444.188 38.4414 445.555 36.9766 448.289 36.9766H457.195C459.93 36.9766 461.297 38.4414 461.297 41.3711V116.605C461.297 119.535 459.93 121 457.195 121H448.289ZM481.043 114.73C478.621 112.895 478.035 111.039 479.285 109.164L483.797 102.367C485.281 100.141 487.449 100.023 490.301 102.016C492.488 103.539 495.34 105.121 498.855 106.762C502.41 108.363 506.141 109.164 510.047 109.164C512.781 109.164 515.418 108.852 517.957 108.227C520.496 107.602 522.43 106.391 523.758 104.594C525.086 102.797 525.75 100.668 525.75 98.207C525.75 96.4492 525.457 94.9062 524.871 93.5781C524.285 92.25 523.328 91.1562 522 90.2969C520.672 89.4375 519.305 88.7148 517.898 88.1289C515.438 87.1133 512.332 86.1172 508.582 85.1406C504.871 84.125 501.199 82.9141 497.566 81.5078C494.324 80.2578 491.355 78.5391 488.66 76.3516C485.965 74.1641 483.875 71.7031 482.391 68.9688C480.906 66.2344 480.164 62.582 480.164 58.0117C480.164 52.582 481.922 47.9336 485.438 44.0664C488.953 40.1992 492.996 37.7188 497.566 36.625C502.137 35.5312 506.746 34.9844 511.395 34.9844C516.004 34.9844 520.75 35.6875 525.633 37.0938C530.555 38.5 534.266 40.2578 536.766 42.3672C539.227 44.4375 539.832 46.3125 538.582 47.9922L533.836 54.3789C532.234 56.5664 530.086 56.7422 527.391 54.9062C525.672 53.7344 523.309 52.4258 520.301 50.9805C517.332 49.5352 514.227 48.8125 510.984 48.8125C508.68 48.8125 506.551 49.0078 504.598 49.3984C502.684 49.7891 500.984 50.7266 499.5 52.2109C498.016 53.6953 497.273 55.5313 497.273 57.7188C497.273 59.8281 497.82 61.5469 498.914 62.875C500.008 64.1641 501.219 65.1406 502.547 65.8047C503.875 66.4297 505.223 66.957 506.59 67.3867C510.809 68.7539 514.578 69.9648 517.898 71.0195C521.219 72.0352 524.285 73.168 527.098 74.418C531.004 76.1758 533.992 77.9336 536.062 79.6914C538.133 81.4492 539.832 83.8516 541.16 86.8984C542.527 89.9453 543.211 93.5781 543.211 97.7969C543.211 104.047 541.219 109.223 537.234 113.324C533.25 117.387 528.816 120.004 523.934 121.176C519.09 122.387 514.363 122.992 509.754 122.992C502.957 122.992 497.43 122.328 493.172 121C488.914 119.711 484.871 117.621 481.043 114.73ZM560.789 121C558.055 121 556.688 119.535 556.688 116.605V41.3711C556.688 38.4414 558.055 36.9766 560.789 36.9766H569.695C572.43 36.9766 573.797 38.4414 573.797 41.3711V116.605C573.797 119.535 572.43 121 569.695 121H560.789ZM588.211 78.9883C588.211 65.5117 591.688 54.8086 598.641 46.8789C605.594 38.9492 615.516 34.9844 628.406 34.9844C641.297 34.9844 651.219 38.9492 658.172 46.8789C665.125 54.8086 668.602 65.5117 668.602 78.9883C668.602 92.4648 665.125 103.168 658.172 111.098C651.219 119.027 641.297 122.992 628.406 122.992C615.516 122.992 605.594 119.027 598.641 111.098C591.688 103.168 588.211 92.4648 588.211 78.9883ZM606.492 78.9883C606.492 88.7539 608.23 96.2344 611.707 101.43C615.223 106.586 620.789 109.164 628.406 109.164C636.023 109.164 641.57 106.586 645.047 101.43C648.562 96.2344 650.32 88.7539 650.32 78.9883C650.32 69.2227 648.562 61.7617 645.047 56.6055C641.57 51.4102 636.023 48.8125 628.406 48.8125C620.789 48.8125 615.223 51.4102 611.707 56.6055C608.23 61.7617 606.492 69.2227 606.492 78.9883ZM687.117 121C684.383 121 683.016 119.535 683.016 116.605V41.3711C683.016 38.4414 684.383 36.9766 687.117 36.9766H695.789C699.148 36.9766 701.688 38.3437 703.406 41.0781L733.289 89.0664H733.699C733.504 86.7227 733.406 84.3789 733.406 82.0352V41.3711C733.406 38.4414 734.773 36.9766 737.508 36.9766H746.414C749.148 36.9766 750.516 38.4414 750.516 41.3711V116.605C750.516 119.535 749.148 121 746.414 121H738.328C734.969 121 732.43 119.633 730.711 116.898L700.242 68.0312H699.832C700.027 70.375 700.125 72.7188 700.125 75.0625V116.605C700.125 119.535 698.758 121 696.023 121H687.117Z" fill="white"/>
<defs>
<linearGradient id="paint0_linear_124_2" x1="-59.8569" y1="-43.6942" x2="54.5009" y2="198.871" gradientUnits="userSpaceOnUse">
<stop offset="0.402892" stop-color="#B1622F"/>
<stop offset="0.666136" stop-color="#DAA079"/>
</linearGradient>
<linearGradient id="paint1_linear_124_2" x1="-65.5" y1="20.4958" x2="24.646" y2="250.424" gradientUnits="userSpaceOnUse">
<stop offset="0.402892" stop-color="#B1622F"/>
<stop offset="0.666136" stop-color="#DAA079"/>
</linearGradient>
</defs>
</svg>
